<?xml version="1.0" standalone="no"?>
<!DOCTYPE svg PUBLIC "-//W3C//DTD SVG 20010904//EN"
 "http://www.w3.org/TR/2001/REC-SVG-20010904/DTD/svg10.dtd">
<svg version="1.0" xmlns="http://www.w3.org/2000/svg"
 width="746.000000pt" height="746.000000pt" viewBox="0 0 746.000000 746.000000"
 preserveAspectRatio="xMidYMid meet">
<metadata>
Created by potrace 1.14, written by Peter Selinger 2001-2017
</metadata>
<g transform="translate(0.000000,746.000000) scale(0.100000,-0.100000)"
fill="#000000" stroke="none">
<path d="M0 3730 l0 -3250 3730 0 3730 0 0 3250 0 3250 -3730 0 -3730 0 0
-3250z m2838 1019 c35 -17 65 -36 66 -42 2 -7 11 -52 21 -102 9 -49 23 -107
30 -128 13 -38 12 -39 -35 -110 -81 -121 -73 -120 -173 -39 -95 76 -190 126
-270 144 -29 6 -53 13 -55 14 -4 3 5 13 124 149 146 165 133 155 184 150 25
-3 73 -19 108 -36z m1183 27 c217 -34 442 -187 543 -369 46 -82 64 -133 85
-242 l17 -90 57 85 c162 244 346 425 522 513 51 25 177 72 218 82 83 19 119
25 173 31 l60 6 47 -139 c25 -77 48 -150 51 -164 3 -13 8 -37 11 -54 3 -16 10
-46 15 -65 8 -33 22 -120 23 -147 0 -7 1 -13 3 -13 1 0 31 28 66 63 62 60 197
160 235 174 10 3 30 15 45 25 71 49 389 168 489 183 l47 7 52 -134 c78 -197
119 -333 145 -483 2 -11 7 -36 10 -55 15 -73 14 -393 0 -480 -20 -120 -73
-308 -142 -499 l-58 -165 -95 -59 c-188 -117 -407 -207 -585 -241 -82 -15
-308 -16 -370 -1 -32 7 -34 8 -80 19 -52 13 -147 46 -221 77 l-72 30 -6 47
c-12 88 -17 117 -21 138 -4 20 -1 19 108 -12 117 -33 153 -40 276 -53 82 -8
292 -7 362 3 24 3 65 8 90 11 26 3 58 8 70 11 13 2 40 7 59 10 56 9 187 43
288 76 l93 29 -6 102 c-7 120 -10 145 -30 322 -7 68 -35 247 -39 254 -2 3 -7
28 -10 55 -4 27 -13 76 -21 110 -8 34 -16 72 -19 86 -7 39 -63 258 -86 335
-12 39 -22 75 -24 80 -7 30 -29 91 -36 98 -11 12 -118 -63 -180 -126 -102
-102 -196 -253 -260 -418 -21 -54 -36 -99 -34 -99 3 0 0 -8 -5 -19 -26 -47
-81 -368 -85 -493 -1 -20 -4 -39 -6 -41 -3 -3 -25 -8 -50 -11 -75 -10 -220
-34 -310 -50 -47 -9 -88 -16 -92 -16 -6 0 -5 27 9 230 15 223 9 715 -11 840
-2 14 -7 46 -10 71 -13 89 -44 246 -53 262 -2 4 -32 -19 -65 -50 -216 -207
-408 -540 -573 -998 -26 -71 -49 -137 -51 -145 -2 -8 -12 -42 -22 -75 -21 -63
-25 -66 -109 -79 -21 -3 -103 -17 -182 -31 -171 -30 -164 -29 -157 -7 3 9 8
31 11 47 29 150 38 202 50 280 7 50 16 108 20 130 3 22 8 117 10 210 6 211 -5
273 -72 424 -47 105 -98 166 -188 225 -70 45 -120 59 -138 37 -45 -52 -129
-222 -152 -306 -20 -74 -33 -136 -40 -190 -4 -27 -8 -61 -10 -73 -7 -43 -8
-169 -2 -179 7 -11 101 -31 181 -38 26 -2 50 -6 52 -8 5 -4 -106 -118 -178
-184 -42 -38 -51 -42 -100 -42 -77 1 -140 31 -168 80 -31 56 -34 179 -6 294 2
11 9 41 15 66 38 168 202 493 340 674 71 94 207 225 229 220 11 -2 35 -6 53
-9z m-681 -21 c8 -10 11 -30 6 -58 -13 -88 -17 -112 -22 -127 -3 -8 -16 -58
-30 -110 -46 -174 -180 -542 -268 -732 -14 -31 -26 -60 -26 -63 0 -6 130 -1
258 11 l53 5 -71 -68 -71 -68 -110 -15 -110 -15 -48 -115 c-207 -502 -512
-770 -987 -869 -143 -29 -205 -34 -424 -35 -360 -1 -538 35 -704 144 -221 146
-320 316 -281 485 43 189 232 336 520 404 104 25 129 29 198 36 31 3 81 7 110
10 66 6 279 13 612 20 143 3 289 8 325 10 108 6 263 16 290 20 14 1 75 6 135
10 61 4 117 9 125 10 9 1 22 26 33 61 97 314 152 519 198 744 30 143 30 145
72 183 147 135 188 157 217 122z"/>
<path d="M2770 3497 c-3 -3 -36 -8 -75 -11 -38 -4 -81 -8 -95 -10 -25 -4 -133
-17 -180 -21 -14 -2 -45 -5 -70 -9 -25 -3 -99 -13 -165 -21 -66 -9 -131 -17
-145 -20 -14 -2 -43 -6 -65 -10 -42 -6 -66 -9 -155 -19 -30 -4 -66 -9 -80 -11
-27 -5 -76 -11 -160 -20 -30 -4 -66 -8 -80 -10 -14 -2 -54 -6 -90 -10 -36 -4
-76 -8 -90 -10 -14 -2 -54 -7 -90 -10 -36 -4 -72 -9 -81 -10 -9 -2 -39 -6 -66
-10 -102 -13 -236 -44 -276 -65 -44 -23 -97 -75 -97 -95 0 -28 240 -103 390
-124 219 -30 619 -33 780 -7 14 3 66 10 115 16 120 15 318 64 404 100 128 52
268 146 313 209 28 40 72 153 66 171 -2 6 -6 9 -8 7z"/>
</g>
</svg>
